# xmcd CD database file
#
# Track frame offsets:
#	150
#	18369
#	35720
#	55575
#	70301
#	90869
#	105873
#	124648
#	146742
#	166454
#	189922
#	206926
#	223474
#	240304
#	255112
#	276958
#
# Disc length: 3942 seconds
#
# Revision: 0
# Processed by: cddbd v1.5.2PL0 Copyright (c) Steve Scherf et al.
# Submitted via: CDex 1.70beta2
#
DISCID=dc0f6410
DTITLE=Alexandre Pires - E amigos
DYEAR=2011
DGENRE=Salsa
TTITLE0=Delirios de amor
TTITLE1=Te amar sem medo
TTITLE2=Final feliz
TTITLE3=Estrela cadente
TTITLE4=Depois do prazer
TTITLE5=Abafa o caso
TTITLE6=A amizade
TTITLE7=Pout pourri mineirinho
TTITLE8=Essa tal liberdade
TTITLE9=Não me ame
TTITLE10=Solidão
TTITLE11=A Deus eu peço
TTITLE12=Cheguei tarde demais
TTITLE13=Eo sou o samba
TTITLE14=Solo que me falta
TTITLE15=Santo, santo
EXTD=YEAR: 2011
EXTT0=
EXTT1=
EXTT2=
EXTT3=
EXTT4=
EXTT5=
EXTT6=
EXTT7=
EXTT8=
EXTT9=
EXTT10=
EXTT11=
EXTT12=
EXTT13=
EXTT14=
EXTT15=
PLAYORDER=
